<?xml version="1.0" standalone="no"?>
<!DOCTYPE svg PUBLIC "-//W3C//DTD SVG 20010904//EN"
 "http://www.w3.org/TR/2001/REC-SVG-20010904/DTD/svg10.dtd">
<svg version="1.0" xmlns="http://www.w3.org/2000/svg"
 width="1024.000000pt" height="1024.000000pt" viewBox="0 0 1024.000000 1024.000000"
 preserveAspectRatio="xMidYMid meet">

<g transform="translate(0.000000,1024.000000) scale(0.100000,-0.100000)"
fill="#000000" stroke="none">
<path d="M0 5120 l0 -5120 5120 0 5120 0 0 5120 0 5120 -5120 0 -5120 0 0
-5120z m5510 3765 l0 -25 159 0 c151 0 160 -1 166 -20 6 -18 15 -20 86 -20 78
0 79 0 79 -25 0 -24 2 -25 65 -25 51 0 65 -3 65 -15 0 -12 13 -15 60 -15 57 0
60 -1 60 -25 0 -24 2 -25 70 -25 68 0 70 -1 70 -25 0 -24 2 -25 71 -25 l72 0
-6 -35 -6 -35 70 0 c67 0 69 -1 69 -25 0 -24 2 -25 65 -25 l65 0 0 -30 c0 -28
3 -30 35 -30 32 0 35 -3 35 -27 0 -27 1 -28 50 -25 48 4 50 3 50 -22 0 -24 3
-26 45 -26 45 0 45 0 45 -35 l0 -35 60 0 c52 0 60 -2 60 -19 0 -43 10 -51 66
-51 l54 0 0 -35 c0 -33 2 -35 35 -35 31 0 35 -3 35 -25 0 -22 4 -25 40 -25 38
0 40 -2 40 -30 0 -27 3 -30 30 -30 25 0 30 -4 30 -25 0 -22 4 -25 35 -25 33 0
35 -2 35 -35 0 -34 1 -35 40 -35 39 0 40 -1 40 -34 0 -33 2 -35 38 -38 32 -3
37 -6 37 -28 0 -17 7 -27 20 -30 13 -4 21 -16 23 -33 3 -22 8 -27 33 -27 26 0
29 -3 29 -30 0 -28 3 -30 35 -30 33 0 35 -2 35 -34 0 -25 5 -35 20 -39 11 -3
20 -12 20 -21 0 -9 8 -16 20 -16 16 0 20 -7 20 -35 0 -32 2 -35 30 -35 28 0
30 -3 30 -36 0 -34 1 -35 30 -29 l30 7 0 -56 c0 -56 0 -56 30 -56 25 0 30 -4
30 -25 0 -20 5 -25 25 -25 24 0 25 -3 25 -55 0 -54 0 -55 29 -55 25 0 30 -4
33 -27 2 -23 8 -29 36 -31 29 -3 32 -6 32 -36 0 -25 5 -35 20 -39 17 -4 20
-14 20 -60 0 -47 3 -55 21 -60 17 -5 20 -11 14 -35 -6 -27 -4 -29 19 -25 26 5
26 4 26 -56 l0 -61 35 0 c34 0 35 -1 35 -40 l0 -40 40 0 40 0 0 -105 0 -105
34 0 c33 0 33 -1 40 -52 3 -29 6 -68 6 -85 0 -32 2 -33 40 -33 l40 0 0 -130 0
-130 35 0 35 0 0 -150 0 -150 40 0 40 0 0 -210 0 -210 35 0 35 0 0 -170 0
-170 -322 2 -323 3 -3 163 c-2 132 -5 164 -17 168 -11 5 -15 23 -15 70 l0 64
-36 0 -37 0 7 -112 c4 -61 4 -245 0 -410 l-7 -298 -27 0 -27 0 -1 410 -2 410
30 0 30 0 0 75 0 75 -45 0 c-43 0 -45 1 -45 30 0 25 -4 30 -25 30 -20 0 -25 5
-25 25 0 20 -5 25 -25 25 -20 0 -25 5 -25 25 0 20 -5 25 -25 25 -21 0 -25 5
-25 31 0 28 -2 31 -24 25 -35 -9 -56 3 -56 30 l0 24 -380 0 -380 0 0 -45 c0
-45 0 -45 -35 -45 -35 0 -35 0 -35 -43 l0 -44 -172 -6 c-95 -4 -235 -7 -310
-7 l-138 0 0 140 0 140 -40 0 c-38 0 -40 2 -40 30 l0 30 -165 0 -165 0 0 35 0
35 85 0 85 0 0 35 c0 31 3 35 35 41 28 5 35 11 35 30 0 17 7 25 25 30 19 5 25
13 25 35 0 22 5 29 20 29 16 0 20 7 20 30 0 25 4 30 25 30 21 0 25 5 25 29 0
25 4 30 28 33 23 3 27 8 30 41 3 31 7 37 27 37 22 0 24 5 31 69 6 66 8 70 33
73 25 3 26 5 29 81 l3 77 29 0 30 0 0 184 0 185 -27 3 -28 3 -3 98 -3 97 -35
0 -36 0 4 63 c3 60 2 62 -23 65 -24 3 -25 5 -21 62 l4 60 -31 0 c-30 0 -31 -1
-31 -45 0 -38 3 -45 20 -45 18 0 20 -7 20 -85 l0 -85 30 0 30 0 0 -94 c0 -75
3 -95 15 -100 13 -5 15 -30 13 -168 l-3 -163 -125 3 c-69 2 -127 5 -129 7 -2
2 -6 108 -9 234 l-5 231 -38 0 -39 0 0 90 c0 89 0 90 -25 90 -23 0 -24 3 -27
68 -3 63 -4 67 -28 70 -23 3 -25 7 -22 37 4 33 3 35 -27 35 -29 0 -31 3 -31
35 0 32 -2 35 -30 35 -27 0 -30 3 -30 30 l0 30 115 -1 c114 -1 115 -1 115 -25
0 -19 5 -24 25 -24 14 0 25 -4 25 -10 0 -5 11 -10 25 -10 21 0 25 -5 25 -30 0
-25 4 -30 25 -30 22 0 25 -4 25 -35 0 -33 2 -35 35 -35 33 0 35 2 35 35 0 32
-2 35 -30 35 -27 0 -30 3 -30 30 0 23 -4 30 -20 30 -16 0 -20 7 -20 30 0 23
-5 30 -19 30 -37 0 -51 12 -51 41 0 27 -3 29 -40 29 -39 0 -40 1 -40 35 l0 34
-67 3 -68 3 -1 35 0 35 -356 3 -357 2 -3 -32 -3 -33 -77 -3 -78 -3 0 -34 c0
-35 0 -35 -45 -35 -45 0 -45 0 -45 -35 0 -31 -3 -35 -35 -41 -30 -5 -35 -10
-35 -35 0 -22 -5 -29 -20 -29 -16 0 -20 -7 -20 -36 0 -35 -1 -36 -30 -30 -29
5 -30 4 -30 -29 0 -31 -3 -35 -25 -35 -20 0 -25 5 -25 25 0 21 -5 25 -30 25
-19 0 -30 5 -29 13 4 35 -2 47 -25 47 -21 0 -25 6 -28 33 -3 28 -7 32 -35 35
-30 3 -32 5 -26 33 5 29 5 29 -41 29 -42 0 -46 2 -46 25 0 24 -3 25 -55 25
l-55 0 0 35 0 35 -305 0 -305 0 0 -25 c0 -24 -2 -25 -70 -25 l-70 0 0 -30 c0
-30 -1 -30 -55 -30 l-55 0 0 -34 c0 -32 -3 -35 -32 -38 -29 -3 -33 -7 -36 -35
-3 -27 -7 -33 -28 -33 -21 0 -24 -5 -24 -35 0 -31 -3 -35 -25 -35 -21 0 -25
-5 -25 -29 0 -23 -5 -30 -22 -33 -20 -3 -24 -10 -28 -58 -4 -48 -8 -55 -27
-58 -21 -3 -23 -9 -23 -57 0 -51 -1 -54 -27 -57 l-28 -3 -3 -97 c-3 -95 -3
-98 -26 -98 -13 0 -27 -7 -30 -16 -3 -9 -6 -92 -6 -185 l0 -169 30 0 30 0 0
-100 0 -100 30 0 c29 0 30 -1 30 -50 0 -49 1 -50 30 -50 29 0 30 -1 30 -49 0
-46 1 -48 25 -43 23 4 25 1 25 -32 0 -32 3 -36 25 -36 21 0 25 -5 25 -30 0
-25 4 -30 25 -30 20 0 25 -5 25 -25 0 -21 5 -25 30 -25 28 0 30 -3 30 -35 0
-34 1 -35 40 -35 39 0 40 -1 40 -35 l0 -35 75 0 75 0 0 -35 0 -35 -139 0 c-77
0 -146 -3 -155 -6 -10 -4 -16 -18 -16 -35 0 -27 -3 -29 -40 -29 -38 0 -40 -2
-40 -30 0 -29 -1 -30 -50 -30 l-50 0 0 -300 0 -300 -235 0 -235 0 0 -155 0
-155 -870 0 -870 0 0 175 0 175 35 0 35 0 0 205 0 205 40 0 39 0 3 148 3 147
28 -3 c15 -1 28 1 28 5 2 7 3 52 8 230 1 29 4 32 39 35 l37 3 5 80 5 80 38 3
37 3 0 110 0 109 40 0 c40 0 40 0 40 39 0 37 2 40 33 43 31 3 32 5 35 51 2 32
8 47 17 47 8 0 15 13 17 33 2 24 8 33 26 35 19 3 22 9 22 53 0 42 3 49 20 49
17 0 20 7 20 40 0 38 2 40 29 40 25 0 30 4 33 28 2 21 10 29 36 37 30 9 32 12
32 57 0 41 3 48 20 48 15 0 20 7 20 29 0 25 4 30 28 33 24 3 28 8 32 48 4 40
8 45 33 48 23 3 27 8 27 33 0 26 3 29 30 29 28 0 30 2 30 40 0 34 4 41 25 46
21 5 25 12 25 40 0 31 3 34 30 34 28 0 30 3 30 35 0 33 2 35 35 35 34 0 35 1
35 40 0 38 2 40 30 40 25 0 30 4 30 24 0 21 5 25 38 28 34 3 37 6 40 36 3 30
6 32 43 32 38 0 39 1 39 35 0 33 2 35 35 35 32 0 35 2 35 30 0 27 3 30 30 30
27 0 30 3 30 30 0 28 2 30 40 30 38 0 40 2 40 30 0 28 2 30 40 30 38 0 40 2
40 30 0 29 2 30 45 30 41 0 45 2 45 25 0 22 4 25 35 25 31 0 35 3 35 25 0 23
4 25 45 25 41 0 45 2 45 25 0 26 6 28 53 25 23 -1 27 2 27 24 0 24 3 26 50 26
47 0 50 2 50 25 0 23 4 25 40 25 36 0 40 3 40 25 0 24 3 25 55 25 52 0 55 1
55 25 0 24 2 25 65 25 l65 0 0 30 0 30 75 0 75 0 0 30 0 30 75 0 c68 0 75 2
75 20 0 18 7 20 60 20 53 0 60 2 60 20 0 18 7 20 65 20 63 0 65 1 65 25 0 25
1 25 80 25 73 0 80 2 80 20 0 19 7 20 160 20 l160 0 0 25 0 25 425 0 425 0 0
-25z m2680 -415 l0 -80 85 0 85 0 0 -85 0 -85 -85 0 -85 0 0 -85 0 -85 -80 0
-80 0 0 85 0 85 -80 0 -80 0 0 85 0 85 80 0 80 0 0 80 0 80 80 0 80 0 0 -80z
m-5652 -37 l3 -53 35 0 c30 0 34 -3 34 -25 0 -22 -4 -25 -35 -25 -34 0 -35 -1
-35 -39 0 -55 -8 -71 -36 -71 -22 0 -24 4 -24 50 l0 50 -35 0 c-32 0 -35 2
-35 30 0 28 3 30 35 30 l35 0 0 56 c0 54 0 55 28 52 25 -3 27 -7 30 -55z
m2182 -738 c0 -10 10 -15 30 -15 23 0 30 -4 30 -20 0 -13 7 -20 20 -20 17 0
20 -7 20 -40 0 -22 5 -40 10 -40 6 0 10 5 10 10 0 6 6 10 14 10 15 0 26 -43
26 -106 0 -40 -2 -44 -25 -44 -25 0 -25 -1 -25 -90 l0 -90 -35 0 -35 0 0 59 0
60 -42 3 -43 3 -3 93 -3 92 -29 0 c-28 0 -30 3 -30 35 0 32 -2 35 -30 35 -27
0 -30 3 -30 34 0 19 -6 37 -12 39 -7 3 31 6 85 6 80 1 97 -2 97 -14z m900
-445 c0 -17 7 -20 40 -20 39 0 40 -1 40 -35 0 -31 3 -35 25 -35 l25 0 0 -135
0 -135 -30 0 c-26 0 -30 -3 -30 -29 0 -24 -5 -30 -30 -34 -24 -5 -30 -12 -30
-32 l0 -25 -135 0 -135 0 0 40 0 40 105 0 105 0 0 150 0 150 -110 0 -110 0 0
-145 0 -145 -30 0 -30 0 0 150 0 150 30 0 c27 0 30 3 30 29 0 29 2 30 53 33
45 3 52 6 55 26 3 21 8 22 83 22 72 0 79 -2 79 -20z m-1470 -13 c0 -20 4 -23
30 -19 30 4 30 4 30 -47 0 -50 1 -51 30 -51 l30 0 0 -84 c0 -76 -2 -85 -20
-91 -17 -5 -20 -15 -20 -66 0 -56 -1 -59 -25 -59 -24 0 -25 -2 -25 -65 l0 -65
-55 0 -55 0 0 65 c0 58 2 65 20 65 17 0 20 7 20 40 0 36 2 40 25 40 26 0 26 1
23 68 -3 65 -4 67 -30 70 -24 3 -28 8 -28 36 0 25 -5 35 -20 39 -18 5 -20 14
-20 76 l0 71 45 0 c40 0 45 -2 45 -23z m-160 -57 l0 -71 -57 3 c-57 3 -58 3
-61 36 -3 29 -1 32 22 32 23 0 26 4 26 35 0 33 2 35 35 35 l35 0 0 -70z m-110
-135 c0 -58 2 -65 20 -65 18 0 20 -7 20 -81 l0 -81 35 4 35 4 0 -68 0 -68 -55
0 -55 0 0 70 c0 68 -1 70 -25 70 -25 0 -25 1 -25 79 0 43 -3 106 -6 140 l-7
61 32 0 31 0 0 -65z m-2960 -780 l0 -55 45 0 c43 0 45 -1 45 -30 0 -29 -2 -30
-45 -30 l-45 0 0 -50 c0 -49 -1 -50 -30 -50 -29 0 -30 1 -30 50 l0 50 -45 0
c-43 0 -45 1 -45 30 0 29 2 30 45 30 l45 0 0 55 c0 54 0 55 30 55 30 0 30 -1
30 -55z m4078 5 c18 0 22 -6 22 -30 0 -28 2 -30 40 -30 l40 0 0 -40 0 -40 40
0 c38 0 40 -2 40 -30 l0 -30 -235 0 -235 0 0 30 c0 28 3 30 35 30 24 0 35 5
35 15 0 10 10 15 29 15 25 0 30 4 33 28 2 21 9 28 31 30 23 3 27 8 27 34 0 30
1 30 38 24 20 -3 47 -6 60 -6z m1279 -370 l113 0 0 -125 0 -125 -40 0 c-39 0
-40 1 -40 34 l0 34 -304 7 c-166 4 -316 4 -332 1 l-29 -6 -3 -740 -4 -740 134
0 c74 0 137 -2 139 -4 2 -2 2 -27 1 -55 l-4 -51 -179 0 -179 0 0 883 c0 486 3
887 8 892 4 4 142 5 306 1 165 -3 350 -6 413 -6z m-807 -905 l0 -855 -52 0
-53 0 3 142 c2 79 1 414 -3 746 l-7 602 -924 0 -924 0 0 58 c0 31 -3 81 -6
110 l-7 52 987 0 986 0 0 -855z m2440 735 c0 -17 7 -20 40 -20 36 0 40 -2 40
-25 0 -21 5 -25 30 -25 27 0 30 -3 30 -33 0 -29 3 -33 28 -32 25 0 27 -3 30
-42 3 -40 5 -43 33 -43 28 0 29 -2 29 -45 0 -43 -1 -45 -30 -45 -28 0 -30 2
-30 40 0 38 -2 40 -30 40 -28 0 -30 2 -30 40 0 38 -2 40 -29 40 -26 0 -30 4
-33 33 -2 27 -8 33 -30 35 -16 2 -28 8 -28 13 0 5 -69 9 -165 9 -158 0 -165
-1 -165 -20 0 -17 -7 -20 -50 -20 -43 0 -50 -3 -50 -20 0 -13 -7 -20 -20 -20
-11 0 -20 -7 -20 -15 0 -10 -11 -15 -35 -15 -33 0 -35 -2 -35 -35 0 -31 -3
-35 -25 -35 -21 0 -25 -5 -25 -30 0 -25 -4 -30 -24 -30 -21 0 -25 -6 -28 -32
-2 -28 -8 -34 -30 -36 l-28 -3 0 -115 c0 -102 -2 -114 -17 -114 -17 0 -18 -13
-15 -150 2 -123 6 -150 18 -150 11 0 14 -21 14 -110 l0 -110 30 0 30 0 0 -60
0 -60 30 0 c25 0 30 -4 30 -25 0 -23 4 -25 41 -25 35 0 40 -2 29 -15 -15 -18
-5 -35 21 -35 10 0 19 -7 19 -15 0 -10 10 -15 30 -15 17 0 30 -4 30 -9 0 -6
16 -7 35 -4 33 5 35 4 35 -23 l0 -29 160 -2 c153 -2 160 -1 160 17 0 16 7 20
35 20 32 0 35 2 35 30 0 28 3 30 35 30 34 0 35 1 35 40 0 29 4 40 15 40 12 0
15 13 15 60 l0 60 45 0 45 0 0 -65 0 -65 -30 0 c-28 0 -30 -2 -30 -40 0 -38
-2 -40 -30 -40 -27 0 -30 -3 -30 -30 0 -28 -3 -30 -35 -30 -28 0 -35 -4 -35
-20 0 -16 -7 -20 -35 -20 -32 0 -35 -2 -35 -30 l0 -30 -170 0 c-169 0 -170 0
-171 23 -1 19 -2 19 -6 3 -4 -15 -7 -16 -14 -5 -6 10 -9 10 -9 2 0 -7 -4 -13
-10 -13 -5 0 -10 11 -10 25 0 22 -4 25 -35 25 -28 0 -35 4 -35 20 0 13 -7 20
-20 20 -13 0 -20 7 -20 20 0 16 -7 20 -30 20 -27 0 -30 3 -30 30 0 27 -3 30
-30 30 -28 0 -30 3 -30 35 0 32 -2 35 -30 35 l-30 0 0 60 0 60 -30 0 -30 0 0
75 0 75 -99 0 -99 0 -3 209 c-2 114 -2 267 0 340 3 119 5 131 21 131 32 0 50
11 50 31 0 14 7 19 25 19 23 0 25 4 25 46 l0 46 150 -4 150 -4 0 23 c0 19 5
23 30 23 25 0 30 4 30 25 0 21 5 25 30 25 28 0 30 2 30 40 l0 40 200 0 c193 0
200 -1 200 -20z m-930 -195 l0 -45 -45 0 -45 0 0 -149 0 -150 -37 -3 -38 -3
-5 -243 c-3 -134 -2 -249 2 -255 6 -9 8 -9 8 1 0 6 3 12 8 12 13 0 7 -96 -7
-113 -8 -10 -28 -17 -49 -17 l-35 0 5 85 6 85 -44 0 -44 0 0 220 0 220 -35 0
c-31 0 -35 -3 -41 -37 -10 -51 5 -407 16 -411 6 -2 10 -13 10 -24 0 -16 -5
-19 -22 -14 -13 3 -44 6 -70 6 l-48 0 0 324 c0 178 3 331 6 340 4 11 19 16 50
16 l44 0 0 40 c0 38 1 40 31 40 24 0 30 4 25 15 -3 8 -1 15 4 15 6 0 10 7 10
15 0 10 11 15 35 15 28 0 35 4 35 20 0 17 7 20 41 20 33 0 40 -3 35 -16 -3 -9
-6 -24 -6 -35 0 -12 -7 -19 -20 -19 -18 0 -20 -7 -20 -54 l0 -55 -37 -3 -38
-3 -3 -97 -3 -98 36 0 35 0 0 90 0 90 40 0 39 0 3 68 3 67 38 9 c33 9 37 13
37 43 0 32 1 33 45 33 l45 0 0 -45z m-390 20 c0 -8 -7 -15 -15 -15 -9 0 -15
-9 -15 -21 0 -19 -4 -21 -37 -15 -21 3 -91 6 -155 6 -108 0 -117 2 -123 20 -3
11 -3 24 0 30 4 6 72 10 176 10 144 0 169 -2 169 -15z m-793 -1 c-3 -3 -12 -4
-19 -1 -8 3 -5 6 6 6 11 1 17 -2 13 -5z m283 -24 c0 -29 -2 -30 -45 -30 l-45
0 0 -75 0 -75 -35 0 -35 0 0 -55 c0 -42 -3 -55 -15 -55 -11 0 -15 -13 -15 -54
0 -53 -17 -85 -39 -72 -5 3 -11 1 -13 -5 -3 -9 -15 -9 -43 -3 l-40 10 -3 133
-3 133 30 -4 c29 -4 31 -3 36 41 9 68 11 71 50 71 33 0 35 2 35 35 l0 35 90 0
90 0 0 -30z m169 -50 l10 -30 110 0 c102 0 111 -2 111 -19 0 -24 -35 -31 -151
-31 -72 0 -89 3 -89 15 0 9 -10 15 -26 15 -23 0 -25 -3 -22 -32 3 -31 1 -33
-29 -36 l-33 -3 -2 -332 -3 -332 -27 -3 -28 -3 0 225 0 226 -35 0 -35 0 0 105
0 105 34 0 c31 0 34 3 40 39 5 34 10 40 34 43 21 2 28 9 30 30 2 19 10 29 25
33 51 10 62 13 69 14 3 0 11 -12 17 -29z m-2459 -120 c0 -15 7 -20 25 -20 18
0 25 -5 25 -20 0 -11 -7 -23 -15 -26 -10 -4 -15 -20 -15 -45 0 -34 -3 -39 -24
-39 -13 0 -26 7 -30 15 -3 8 -12 15 -20 15 -18 0 -31 41 -23 70 3 11 0 20 -6
21 -8 0 -8 2 1 6 6 2 12 13 12 24 0 15 7 19 35 19 28 0 35 -4 35 -20z m1370
-260 l0 -250 -320 0 -320 0 0 250 0 250 320 0 320 0 0 -250z m1260 220 l0 -30
-89 0 c-72 0 -90 3 -95 16 -16 41 -10 44 89 44 l95 0 0 -30z m1222 -87 c3 -27
5 -28 76 -31 l72 -3 0 -109 c0 -74 4 -110 12 -112 8 -3 12 -39 12 -114 1 -102
2 -109 21 -109 19 0 20 8 23 243 l2 242 25 0 c25 0 25 -1 25 -80 l0 -80 55 0
55 0 0 -220 0 -220 -30 0 -30 0 0 -85 0 -85 -25 6 c-24 6 -25 5 -25 -45 l0
-51 -115 0 c-97 0 -115 2 -115 16 0 12 -11 15 -52 14 -73 -2 -92 3 -96 28 -3
19 2 22 27 22 28 0 31 3 31 30 0 28 3 30 35 30 32 0 35 2 35 30 0 28 -2 30
-40 30 -35 0 -40 -3 -40 -24 0 -22 -4 -23 -77 -29 -42 -3 -81 -4 -85 -1 -4 3
-8 25 -8 50 0 42 1 44 30 44 20 0 30 5 30 15 0 11 12 15 50 15 l50 0 0 235 c0
150 4 235 10 235 6 0 10 30 10 70 0 67 1 70 24 70 19 0 25 -6 28 -27z m-1262
-38 c0 -25 -1 -25 -90 -25 -89 0 -90 0 -90 25 0 25 1 25 90 25 89 0 90 0 90
-25z m-3210 -190 l0 -155 -25 0 -25 0 0 155 0 155 25 0 25 0 0 -155z m234 133
c0 -10 -1 -79 -2 -153 l-2 -135 -60 0 -60 0 0 155 0 156 63 -3 c52 -3 62 -6
61 -20z m946 -58 l0 -80 -60 0 -59 0 6 68 c7 76 19 91 76 92 l37 0 0 -80z
m2030 -5 l0 -36 -92 3 -93 3 -3 33 -3 32 95 0 96 0 0 -35z m0 -145 l0 -30 -94
0 c-97 0 -114 8 -100 45 5 12 26 15 100 15 l94 0 0 -30z m-2220 -115 c0 -22 4
-25 35 -25 l35 0 0 -90 c0 -73 -3 -90 -15 -90 -9 0 -15 -9 -15 -25 0 -18 -5
-25 -20 -25 -11 0 -20 -4 -20 -10 0 -6 -30 -10 -70 -10 l-70 0 0 34 c0 21 -6
36 -16 40 -21 8 -19 176 2 176 8 0 14 11 14 25 0 24 2 25 70 25 68 0 70 -1 70
-25z m-410 5 c0 -5 9 -10 20 -10 18 0 20 -7 20 -65 l0 -65 -59 0 -59 0 -3 43
c-2 23 -3 57 -1 75 3 30 6 32 43 32 21 0 39 -4 39 -10z m2620 -25 l0 -35 -90
0 -90 0 0 28 c0 16 3 32 7 35 3 4 44 7 90 7 l83 0 0 -35z m-3438 -17 l3 -33
233 -3 232 -2 0 -135 0 -135 -1075 0 -1075 0 0 170 0 170 839 0 840 0 3 -32z
m5988 -138 l0 -170 -340 0 -340 0 0 60 0 60 40 0 40 0 0 110 0 110 300 0 300
0 0 -170z m-3910 30 c0 -5 7 -10 15 -10 9 0 20 -11 25 -25 5 -14 14 -25 20
-25 5 0 10 -9 10 -21 0 -15 -5 -19 -15 -15 -11 4 -15 -2 -15 -24 0 -29 -2 -30
-45 -30 l-45 0 0 80 c0 79 0 80 25 80 14 0 25 -4 25 -10z m-60 -39 c0 -17 -4
-33 -10 -36 -5 -3 -10 3 -10 14 0 10 -3 26 -6 35 -4 11 -1 16 10 16 11 0 16
-9 16 -29z m3220 -286 c0 -13 44 -15 335 -15 l335 0 0 -110 0 -110 -35 0 -35
0 0 -60 0 -60 -1150 0 -1150 0 0 130 0 130 305 0 305 0 0 -25 c0 -22 4 -25 35
-25 33 0 35 -2 35 -35 l0 -35 380 0 380 0 0 40 0 40 50 0 c47 0 50 2 50 25 0
20 5 25 25 25 20 0 27 6 32 30 4 23 11 30 29 30 17 0 24 6 24 20 0 15 7 20 25
20 16 0 25 -6 25 -15z m-4770 -115 l0 -100 90 0 90 0 0 -40 0 -40 45 0 c43 0
45 -1 45 -30 l0 -30 -1140 0 -1140 0 0 65 c0 63 -1 65 -25 65 l-25 0 0 105 0
105 1030 0 1030 0 0 -100z m860 -515 l0 -145 -60 0 c-59 0 -60 0 -60 -28 l0
-29 -137 -6 c-75 -4 -655 -7 -1290 -7 l-1153 0 0 55 0 55 -35 0 -35 0 0 119 0
118 1376 1 c757 1 1379 4 1382 7 3 3 7 5 9 5 2 0 3 -65 3 -145z m4420 10 l0
-125 -35 0 -35 0 0 -50 0 -50 -1355 0 -1355 0 0 175 0 175 1390 0 1390 0 0
-125z m-3860 90 c0 -23 4 -25 45 -25 l45 0 0 -43 c0 -43 1 -43 30 -39 l30 4 0
-171 0 -171 -35 0 c-35 0 -35 0 -35 -45 l0 -45 -40 0 c-36 0 -40 -2 -40 -25
l0 -25 -119 0 c-110 0 -119 1 -124 20 -4 15 -14 20 -36 20 -29 0 -31 3 -31 35
0 33 -2 35 -35 35 l-35 0 0 85 c0 84 0 85 -25 85 -17 0 -25 6 -25 18 0 9 -3
41 -6 70 l-7 52 32 0 c27 0 31 3 31 28 0 57 11 74 41 70 26 -4 29 -2 29 23 0
29 15 39 57 39 13 0 31 7 39 15 12 11 40 15 115 15 99 0 99 0 99 -25z m4330
-255 l0 -60 55 0 c52 0 55 -1 55 -25 0 -24 -3 -25 -55 -25 l-55 0 0 -60 0 -60
-30 0 -30 0 0 60 0 60 -50 0 c-47 0 -50 2 -50 25 0 23 3 25 50 25 l50 0 0 60
0 60 30 0 30 0 0 -60z m-4872 -178 l3 -52 -40 0 c-35 0 -41 -4 -47 -25 -5 -21
-12 -25 -40 -25 -27 0 -34 -4 -34 -19 0 -25 -10 -31 -68 -39 -44 -7 -47 -9
-50 -40 -3 -30 -6 -32 -41 -32 -44 0 -55 -8 -40 -27 9 -10 4 -13 -25 -13 -25
0 -36 -4 -36 -15 0 -8 -9 -15 -20 -15 -13 0 -20 -7 -20 -20 0 -16 -7 -20 -30
-20 -20 0 -30 -5 -30 -15 0 -10 -11 -15 -35 -15 -19 0 -35 -4 -35 -10 0 -5 -9
-10 -20 -10 -11 0 -20 -4 -20 -10 0 -5 -11 -10 -24 -10 -35 0 -56 -10 -56 -26
0 -8 -10 -14 -26 -14 -17 0 -28 -6 -31 -20 -3 -11 -12 -20 -21 -20 -8 0 -20
-7 -27 -17 -8 -10 -32 -18 -69 -21 l-56 -4 0 41 c0 40 1 41 35 41 32 0 35 3
35 29 0 27 3 30 50 36 39 5 50 11 50 25 0 18 35 30 86 30 20 0 24 5 24 30 0
28 3 30 35 30 32 0 35 2 35 30 l0 30 60 0 60 0 0 35 c0 31 3 35 28 35 46 0 72
11 72 30 0 21 19 30 66 30 31 0 34 3 34 30 0 29 1 30 49 30 49 0 50 1 53 33 3
32 3 32 68 38 98 9 95 10 98 -49z m-398 -37 c0 -10 -11 -15 -35 -15 -28 0 -35
-4 -35 -20 0 -18 -7 -20 -55 -20 -54 0 -55 0 -55 -30 0 -29 -2 -30 -45 -30
-43 0 -45 -1 -45 -30 0 -28 -2 -30 -40 -30 -36 0 -40 -2 -40 -25 0 -23 -4 -25
-45 -25 -43 0 -45 -1 -45 -30 0 -27 -3 -30 -30 -30 -23 0 -30 -4 -30 -20 0
-19 -7 -20 -135 -20 -92 0 -135 -4 -135 -11 0 -7 -9 -9 -23 -5 -13 3 -299 6
-635 6 l-612 1 0 50 c0 46 -2 49 -25 49 -24 0 -25 3 -25 55 l0 55 -34 0 -34 0
-4 63 c-2 34 -2 65 0 70 2 4 489 7 1083 7 952 0 1079 -2 1079 -15z m4570 -56
l0 -69 -40 0 -40 0 0 -55 c0 -52 -1 -55 -25 -55 -23 0 -25 -4 -25 -46 0 -41
-2 -46 -20 -41 -11 3 -20 1 -20 -4 0 -10 -2524 -13 -2668 -3 l-92 7 0 48 0 49
-70 0 -70 0 0 30 0 30 180 0 180 0 0 40 0 40 45 0 c43 0 45 1 45 30 0 28 3 30
35 30 29 0 35 4 35 21 l0 20 1275 -2 1275 -1 0 -69z m-3930 -99 c0 -18 7 -20
70 -20 68 0 70 -1 70 -25 0 -22 -4 -25 -40 -25 l-40 0 0 -48 0 -49 -112 -6
c-143 -9 -381 -9 -402 -1 -9 3 -16 12 -16 20 0 10 14 14 50 14 46 0 50 2 50
24 0 22 5 25 43 28 38 3 42 6 45 31 3 21 9 27 28 27 19 0 24 5 24 25 l0 25
115 0 c108 0 115 -1 115 -20z m900 -169 c0 -11 3 -26 6 -35 5 -14 -12 -16
-150 -16 l-156 0 0 -77 c0 -43 -3 -122 -7 -175 l-6 -98 -62 0 -62 0 -6 98 c-4
53 -7 132 -7 175 l0 77 -150 0 -150 0 0 29 c0 28 3 30 43 34 23 2 192 4 375 5
321 2 332 1 332 -17z m-840 -201 l0 -50 -100 0 -100 0 0 -50 0 -50 100 0 100
0 0 -25 0 -25 -165 0 -165 0 0 -49 0 -48 -82 -6 c-46 -4 -237 -7 -425 -7 -336
0 -343 0 -343 20 0 16 7 20 35 20 34 0 35 1 35 40 0 37 3 41 30 47 23 4 30 11
30 29 0 17 6 23 28 26 21 2 28 9 30 30 3 25 7 27 60 30 53 3 57 5 60 30 3 23
9 27 53 33 43 6 49 10 49 31 l0 24 385 0 385 0 0 -50z m3557 36 c1 0 4 -13 8
-29 7 -26 5 -27 -29 -27 -33 0 -36 -2 -36 -30 0 -27 -3 -30 -30 -30 -29 0 -30
-2 -30 -45 0 -43 -1 -45 -30 -45 -28 0 -30 -3 -30 -35 0 -32 -2 -35 -30 -35
-28 0 -30 -3 -30 -35 l0 -35 -992 0 c-546 0 -1010 3 -1030 6 -38 7 -38 7 -38
55 l0 49 -160 0 -160 0 0 25 c0 24 1 24 103 27 l102 3 3 48 3 47 -105 0 -106
0 0 48 0 49 1308 -5 c719 -2 1308 -5 1309 -6z m-5347 -25 c0 -34 -19 -52 -51
-49 -20 3 -25 -2 -27 -24 -3 -26 -6 -28 -54 -28 l-50 0 6 -30 6 -30 -55 0
c-52 0 -55 -1 -55 -25 0 -24 -3 -25 -54 -25 -52 0 -55 -1 -58 -27 -2 -22 -11
-30 -38 -39 -19 -6 -36 -16 -38 -23 -2 -6 -12 -11 -23 -11 -14 0 -19 7 -19 25
0 22 -4 25 -35 25 -35 0 -35 0 -35 45 0 43 -1 45 -30 45 -28 0 -30 3 -30 34 0
32 -3 35 -32 38 -29 3 -33 7 -36 36 -3 28 -7 32 -33 32 -26 0 -29 3 -29 30 l0
30 385 0 385 0 0 -29z m200 -16 c0 -21 -5 -25 -30 -25 -25 0 -30 4 -30 25 0
21 5 25 30 25 25 0 30 -4 30 -25z m-70 -39 c0 -3 -13 -11 -30 -20 -28 -14 -30
-13 -30 5 0 14 7 19 30 19 17 0 30 -2 30 -4z m-60 -65 c0 -18 -25 -31 -62 -31
-13 0 -18 8 -18 25 0 23 4 25 40 25 33 0 40 -4 40 -19z m-75 -62 c0 -8 -15
-14 -42 -15 -37 -2 -43 1 -43 18 0 17 2 18 15 8 9 -7 18 -10 22 -6 3 3 0 6 -8
6 -12 0 -12 2 0 9 18 12 56 -2 56 -20z m1845 -179 l0 -40 -125 0 -125 0 0 -25
c0 -21 -5 -25 -30 -25 -25 0 -30 4 -30 25 0 20 -5 25 -25 25 -14 0 -25 5 -25
10 0 6 11 10 25 10 21 0 25 5 25 30 l0 30 155 0 155 0 0 -40z m650 0 c0 -38
-2 -40 -30 -40 -34 0 -34 0 -30 -122 l2 -68 -31 0 -31 0 0 70 0 70 -110 0
-109 0 -3 -72 -3 -73 -30 0 -30 0 -3 98 c-3 96 -3 97 -27 97 -22 0 -25 4 -25
40 l0 40 230 0 230 0 0 -40z m487 10 c4 -23 11 -30 29 -30 21 0 24 -5 24 -35
l0 -35 -90 0 -90 0 0 -30 c0 -25 -4 -30 -26 -30 -19 0 -28 7 -35 30 -8 22 -17
30 -35 30 -17 0 -24 6 -24 19 0 13 -8 21 -22 23 -19 2 -24 10 -26 46 l-3 42
146 0 146 0 6 -30z m-1637 -150 c0 -25 -4 -30 -25 -30 l-25 0 0 -130 c0 -125
1 -130 21 -130 35 0 15 -24 -27 -32 -21 -4 -294 -7 -606 -7 -499 -1 -568 1
-568 14 0 11 -12 15 -45 15 -43 0 -45 1 -45 30 0 28 -2 30 -40 30 -38 0 -40 2
-40 30 0 28 2 30 40 30 33 0 40 3 40 20 0 13 7 20 20 20 13 0 20 7 20 20 0 17
7 20 45 20 45 0 45 0 45 35 0 32 2 35 30 35 27 0 30 3 30 30 l0 30 565 0 565
0 0 -30z m610 -119 c0 -82 -3 -163 -6 -180 l-6 -31 -104 0 -104 0 0 40 c0 38
2 40 30 40 l30 0 0 75 0 75 34 0 c33 0 34 1 41 50 4 27 4 53 1 59 -7 11 14 18
57 20 l27 1 0 -149z m700 79 l0 -70 30 0 29 0 3 -72 c3 -71 4 -73 31 -76 23
-3 27 -8 27 -33 l0 -29 -100 0 -100 0 0 175 0 175 40 0 40 0 0 -70z m2260 45
c0 -21 -5 -25 -30 -25 -26 0 -31 -5 -36 -30 -5 -25 -11 -30 -35 -30 -25 0 -29
-4 -29 -29 0 -30 -28 -50 -50 -36 -6 4 -13 -7 -16 -24 -6 -26 -11 -31 -35 -31
-24 0 -29 -4 -29 -25 0 -23 -4 -25 -45 -25 -41 0 -45 -2 -45 -25 0 -22 -4 -25
-35 -25 -24 0 -35 -5 -35 -15 0 -13 -74 -15 -602 -15 -627 0 -708 3 -708 26 0
8 11 14 25 14 l25 0 0 130 0 130 -25 0 c-21 0 -25 5 -25 30 l0 30 865 0 865 0
0 -25z m-2534 -261 c-4 -11 -32 -14 -116 -14 l-110 0 0 50 0 50 110 0 c107 0
110 1 112 23 1 12 3 -4 5 -37 2 -32 2 -65 -1 -72z m729 54 c18 -8 18 -8 -2 -4
-20 4 -23 0 -23 -30 l0 -34 -55 0 -55 0 0 45 0 45 58 -6 c31 -4 66 -11 77 -16z
m-1525 3 c0 -5 -3 -23 -6 -40 l-6 -31 -79 0 c-46 0 -79 4 -79 10 0 6 -9 10
-20 10 -16 0 -20 7 -20 30 l0 30 105 0 c58 0 105 -4 105 -9z m-754 -281 l354
0 0 -69 c0 -69 0 -70 -27 -73 l-28 -3 -3 -112 c-2 -103 -4 -112 -23 -118 -12
-4 -26 -2 -32 4 -6 6 -28 11 -49 11 -36 0 -38 2 -38 30 l0 30 -65 0 -65 0 0
36 c0 34 -1 35 -32 33 -63 -4 -78 0 -78 21 0 18 -7 20 -65 20 -64 0 -65 1 -65
26 0 25 -2 26 -39 20 -39 -6 -40 -5 -43 26 -3 32 -5 33 -46 32 -40 -1 -44 1
-49 28 -5 26 -9 28 -49 28 -47 0 -47 0 -37 25 5 15 15 17 66 11 33 -3 219 -6
413 -6z m1124 -235 l0 -235 -228 0 c-126 0 -231 2 -233 4 -2 2 -2 34 -1 70 3
57 6 66 23 66 16 0 19 7 19 45 0 43 1 45 30 45 l30 0 0 65 0 65 30 0 c30 0 30
1 30 55 l0 55 150 0 150 0 0 -235z m910 180 c0 -54 0 -55 30 -55 29 0 29 0 32
-67 3 -65 4 -68 28 -68 22 0 26 -5 30 -45 4 -37 9 -46 28 -48 20 -3 22 -9 22
-68 l0 -64 -230 0 -230 0 0 235 0 235 145 0 145 0 0 -55z m1380 40 c0 -11 -12
-15 -45 -15 -43 0 -45 -1 -45 -30 0 -28 -2 -30 -40 -30 -38 0 -40 -2 -40 -31
0 -30 -1 -31 -42 -27 -38 3 -43 0 -46 -19 -3 -21 -8 -23 -73 -23 -67 0 -69 -1
-69 -25 0 -24 -3 -25 -55 -25 -54 0 -55 0 -55 -30 0 -30 -1 -30 -55 -30 -54 0
-55 0 -55 -30 l0 -30 -60 0 c-47 0 -60 -3 -60 -15 0 -11 -12 -15 -50 -15 l-50
0 0 125 0 125 -35 0 -35 0 0 70 0 70 455 0 c398 0 455 -2 455 -15z"/>
<path d="M4880 5240 c0 -25 4 -30 25 -30 l25 0 0 -110 c0 -103 -1 -110 -20
-110 -15 0 -20 -7 -20 -25 0 -24 2 -25 70 -25 68 0 70 1 70 25 0 18 -5 25 -20
25 -19 0 -20 7 -20 109 0 100 2 109 20 114 14 3 20 14 20 31 0 26 -1 26 -75
26 l-75 0 0 -30z"/>
<path d="M4670 5230 c0 -28 -2 -30 -39 -30 l-40 0 -3 -130 -3 -130 28 0 27 0
0 90 0 90 55 0 55 0 0 -90 0 -90 30 0 31 0 -3 128 -3 127 -37 3 c-35 3 -38 6
-38 33 0 26 -3 29 -30 29 -27 0 -30 -3 -30 -30z"/>
<path d="M7926 4805 c-4 -17 -10 -49 -13 -72 -5 -39 -3 -43 16 -43 19 0 21 6
20 53 0 28 -4 61 -8 72 -7 17 -9 16 -15 -10z"/>
<path d="M7830 4645 c0 -33 2 -35 35 -35 33 0 35 2 35 35 0 33 -2 35 -35 35
-33 0 -35 -2 -35 -35z"/>
<path d="M7660 4630 c0 -16 7 -20 30 -20 23 0 30 4 30 20 0 16 -7 20 -30 20
-23 0 -30 -4 -30 -20z"/>
<path d="M7770 4520 c0 -38 2 -40 30 -40 28 0 30 2 30 40 0 38 -2 40 -30 40
-28 0 -30 -2 -30 -40z"/>
<path d="M7710 4455 c0 -20 5 -25 25 -25 20 0 25 5 25 25 0 20 -5 25 -25 25
-20 0 -25 -5 -25 -25z"/>
<path d="M4590 3680 c0 -26 -3 -30 -29 -30 -28 0 -28 -1 -35 -77 -3 -42 -6
-98 -6 -125 l0 -48 40 0 c36 0 40 -2 40 -25 0 -25 1 -25 85 -25 84 0 85 0 85
25 0 21 5 25 29 25 31 0 41 18 41 76 0 27 4 32 30 38 40 7 38 24 -2 28 -32 3
-33 5 -36 51 -3 45 -5 47 -33 47 -27 0 -29 3 -29 35 l0 35 -90 0 -90 0 0 -30z
m170 -125 l0 -55 -80 0 -80 0 0 49 c0 30 5 51 13 54 6 3 42 6 80 6 l67 1 0
-55z"/>
</g>
</svg>
